<svg width="20" height="20" fill="none" xmlns="http://www.w3.org/2000/svg"><path d="M1.064 5.51A9.996 9.996 0 0110 0c2.695 0 4.959.99 6.69 2.605l-2.867 2.868C12.786 4.482 11.468 3.977 10 3.977c-2.605 0-4.81 1.76-5.595 4.123-.2.6-.314 1.24-.314 1.9 0 .66.114 1.3.314 1.9.786 2.364 2.99 4.123 5.595 4.123 1.345 0 2.49-.355 3.386-.955a4.601 4.601 0 001.996-3.018H10V8.182h9.418c.118.654.182 1.336.182 2.045 0 3.046-1.09 5.61-2.982 7.35C14.964 19.105 12.7 20 10 20A9.998 9.998 0 011.064 5.51z" fill="#fff"/></svg>